# xmcd CD database file
#
# Track frame offsets:
#	150
#	10024
#	23020
#	38086
#	50939
#	70526
#	83546
#	103523
#	124524
#	137391
#	147819
#	160995
#	174868
#	188844
#	214200
#	226563
#	234687
#	253345
#	272883
#	283915
#	298450
#	306467
#
# Disc length: 4166 seconds
#
# Revision: 0
# Processed by: cddbd v1.5.2PL0 Copyright (c) Steve Scherf et al.
# Submitted via: CDex 1.60beta1-cs1
#
DISCID=3a104416
DTITLE=Joe Jordan - From Barrelhouse to Broadway
DYEAR=2006
DGENRE=Jazz
TTITLE0=Double Fudge
TTITLE1=Nappy Lee
TTITLE2=Lovie Joe
TTITLE3=The Darky Todlo: A Raggedy Rag
TTITLE4=Take Your Time
TTITLE5=J.J.J. Rag
TTITLE6=I Am Waiting For You, Honey Dear
TTITLE7=The Whippoorwhill Dance
TTITLE8=Dat's Ma Honey Sho's Yo' Born
TTITLE9=That Teasin' Rag
TTITLE10=Brother-N-Law Dan
TTITLE11=Pekin Rag - Intermezzo
TTITLE12=He's Coming Back!:Teddy Roosevelt's "Bull Moose" Song
TTITLE13=Bouclaire Waltzes
TTITLE14=The Morocco Blues
TTITLE15=Sweatie Dear Fox Trot
TTITLE16=Sweatie Dear: An Afro-American Serenade
TTITLE17=Happiness
TTITLE18=The Century March
TTITLE19=Tango Two Step
TTITLE20=Appendix 1962 Joe Jordan Interview Excerpt
TTITLE21=Appendix 1962 Joe Jordan Interview Excerpt
EXTD=YEAR: 2006
EXTT0=
EXTT1=
EXTT2=
EXTT3=
EXTT4=
EXTT5=
EXTT6=
EXTT7=
EXTT8=
EXTT9=
EXTT10=
EXTT11=
EXTT12=
EXTT13=
EXTT14=
EXTT15=
EXTT16=
EXTT17=
EXTT18=
EXTT19=
EXTT20=
EXTT21=
PLAYORDER=
